<svg width="25" height="28" viewBox="0 0 25 28" fill="none" xmlns="http://www.w3.org/2000/svg">
<path fill-rule="evenodd" clip-rule="evenodd" d="M12.5 13.5954C10.014 13.5954 7.99904 11.5876 7.99904 9.11087C7.99904 6.63415 10.014 4.62635 12.5 4.62635C14.9858 4.62635 17.001 6.63415 17.001 9.11087C17.001 11.5876 14.9858 13.5954 12.5 13.5954ZM12.5 0C7.5438 0 3.52563 4.00328 3.52563 8.94159C3.52563 10.8106 4.10195 12.5451 5.08642 13.98C5.11962 14.0503 5.15868 14.1199 5.20338 14.188L11.5782 23.8631C12.0137 24.5243 12.9863 24.5243 13.422 23.8631L20.0728 13.7686C20.1165 13.7024 20.1518 13.6345 20.1822 13.5658C21.0022 12.2165 21.4744 10.634 21.4744 8.94159C21.4744 4.00328 17.4564 0 12.5 0Z" fill="#8F6DD9"/>
<path fill-rule="evenodd" clip-rule="evenodd" d="M8.13133 9.16983C8.13133 6.76953 10.0911 4.81673 12.5 4.81673C14.9089 4.81673 16.8687 6.76953 16.8687 9.16983C16.8687 11.5701 14.9089 13.5229 12.5 13.5229C10.0911 13.5229 8.13133 11.5701 8.13133 9.16983ZM17.0845 9.16983C17.0845 6.65104 15.028 4.60169 12.5 4.60169C9.97199 4.60169 7.91552 6.65104 7.91552 9.16983C7.91552 11.6886 9.97199 13.738 12.5 13.738C15.028 13.738 17.0845 11.6886 17.0845 9.16983ZM12.5 26.5603C6.05566 26.5603 1.72649 25.4105 1.72649 24.3365C1.72649 23.3876 5.11041 22.3807 10.3445 22.159L11.493 23.9024C11.7164 24.2415 12.0928 24.4441 12.4998 24.4441H12.5C12.9072 24.4441 13.2836 24.2417 13.5072 23.9024L14.6551 22.1597C19.8889 22.3814 23.2735 23.3878 23.2735 24.3365C23.2735 25.4105 18.9443 26.5603 12.5 26.5603ZM5.33312 14.161C5.29212 14.0984 5.25543 14.0332 5.21573 13.9524C4.21242 12.4899 3.68217 10.7781 3.68217 9.00145C3.68217 4.15655 7.63777 0.215042 12.5 0.215042C17.3622 0.215042 21.318 4.15655 21.318 9.00145C21.318 10.607 20.8789 12.1783 20.042 13.5576C20.0111 13.6272 19.9783 13.6881 19.9418 13.7438L13.3268 23.7843C13.1433 24.0628 12.8343 24.229 12.5 24.229C12.1657 24.229 11.8569 24.0628 11.6734 23.7843L5.33312 14.161ZM23.4893 24.3365C23.4893 23.0267 19.3732 22.1702 14.7913 21.9532L20.1225 13.8616C20.1654 13.796 20.2036 13.7251 20.2329 13.6567C21.0841 12.2561 21.5339 10.6463 21.5339 9.00145C21.5339 4.03806 17.4811 0 12.5 0C7.51886 0 3.46636 4.03806 3.46636 9.00145C3.46636 10.8216 4.00955 12.5755 5.02904 14.0588C5.06444 14.1336 5.10587 14.2078 5.1527 14.279L10.2087 21.953C5.62706 22.1698 1.51068 23.0267 1.51068 24.3365C1.51068 25.8631 7.09824 26.7753 12.5 26.7753C17.9018 26.7753 23.4893 25.8631 23.4893 24.3365ZM20.5347 21.1116C20.4766 21.0989 20.419 21.1359 20.4062 21.1941C20.3937 21.2522 20.4308 21.3092 20.4891 21.3216C22.333 21.7169 24.7842 22.459 24.7842 24.3365C24.7842 26.2143 22.333 26.9564 20.4891 27.3514C20.4308 27.3639 20.3937 27.4211 20.4062 27.4792C20.4173 27.5297 20.4619 27.5641 20.5116 27.5641C20.5191 27.5641 20.5269 27.5635 20.5347 27.5617C22.4513 27.151 25 26.37 25 24.3365C25 22.3035 22.4513 21.5223 20.5347 21.1116ZM4.5111 27.3514C2.66721 26.9564 0.215811 26.2143 0.215811 24.3365C0.215811 22.459 2.66721 21.7169 4.5111 21.3216C4.56915 21.3092 4.60627 21.2522 4.59375 21.1941C4.58124 21.1359 4.52448 21.0989 4.46556 21.1116C2.54873 21.5223 0 22.3035 0 24.3365C0 26.37 2.54873 27.151 4.46556 27.5617C4.47333 27.5635 4.48089 27.5641 4.48844 27.5641C4.5383 27.5641 4.58296 27.5297 4.59375 27.4792C4.60627 27.4211 4.56915 27.3639 4.5111 27.3514Z" fill="black"/>
</svg>
