<svg width="137" height="43" viewBox="0 0 137 43" fill="none" xmlns="http://www.w3.org/2000/svg">
<rect width="137" height="43" rx="21.5" fill="#8F6DD9"/>
<path d="M48.3706 25L51.228 17.2495H52.1841L55.0415 25H54.0264L53.2476 22.7817H50.1646L49.3857 25H48.3706ZM51.6631 18.501L50.4492 21.96H52.9629L51.749 18.501H51.6631ZM56.1722 25V19.21H57.1068V20.0693H57.1927C57.4129 19.4624 57.9554 19.1079 58.7396 19.1079C58.9169 19.1079 59.1156 19.1294 59.2069 19.1455V20.0532C59.0135 20.021 58.8363 19.9995 58.6322 19.9995C57.7406 19.9995 57.1068 20.5635 57.1068 21.4121V25H56.1722ZM61.8415 25.1021C60.7404 25.1021 59.9079 24.436 59.9079 23.3833V23.3726C59.9079 22.3413 60.6706 21.7451 62.0188 21.6646L63.6784 21.5625V21.0361C63.6784 20.3218 63.2434 19.9351 62.3786 19.9351C61.6858 19.9351 61.2292 20.1929 61.0788 20.644L61.0735 20.6602H60.1389L60.1443 20.6279C60.2946 19.7202 61.1755 19.1079 62.4109 19.1079C63.8235 19.1079 64.613 19.833 64.613 21.0361V25H63.6784V24.146H63.5925C63.2273 24.7637 62.6203 25.1021 61.8415 25.1021ZM60.864 23.3618C60.864 23.9473 61.3635 24.291 62.0349 24.291C62.9856 24.291 63.6784 23.668 63.6784 22.8408V22.3145L62.1316 22.4111C61.2507 22.4648 60.864 22.7764 60.864 23.3511V23.3618ZM66.211 25V19.21H67.1456V20.0908H67.2315C67.4893 19.4678 68.0372 19.1079 68.7945 19.1079C69.5787 19.1079 70.1265 19.5215 70.3951 20.123H70.481C70.7926 19.5107 71.4532 19.1079 72.2535 19.1079C73.4351 19.1079 74.0958 19.7847 74.0958 20.9985V25H73.1612V21.2134C73.1612 20.3594 72.7691 19.9351 71.9527 19.9351C71.1471 19.9351 70.6153 20.542 70.6153 21.2778V25H69.6807V21.0684C69.6807 20.3809 69.2081 19.9351 68.4776 19.9351C67.7203 19.9351 67.1456 20.5957 67.1456 21.4121V25H66.211ZM77.2621 25.1021C76.1611 25.1021 75.3286 24.436 75.3286 23.3833V23.3726C75.3286 22.3413 76.0912 21.7451 77.4394 21.6646L79.0991 21.5625V21.0361C79.0991 20.3218 78.664 19.9351 77.7993 19.9351C77.1064 19.9351 76.6498 20.1929 76.4995 20.644L76.4941 20.6602H75.5595L75.5649 20.6279C75.7153 19.7202 76.5961 19.1079 77.8315 19.1079C79.2441 19.1079 80.0336 19.833 80.0336 21.0361V25H79.0991V24.146H79.0131C78.6479 24.7637 78.041 25.1021 77.2621 25.1021ZM76.2846 23.3618C76.2846 23.9473 76.7841 24.291 77.4555 24.291C78.4062 24.291 79.0991 23.668 79.0991 22.8408V22.3145L77.5522 22.4111C76.6713 22.4648 76.2846 22.7764 76.2846 23.3511V23.3618ZM84.7336 25V17.2495H87.6984C89.1217 17.2495 89.9919 17.9961 89.9919 19.1777V19.1885C89.9919 19.9888 89.401 20.7192 88.6545 20.8535V20.9395C89.7126 21.0737 90.3839 21.7988 90.3839 22.8193V22.8301C90.3839 24.189 89.4064 25 87.7575 25H84.7336ZM87.4943 18.1035H85.7004V20.5903H87.2472C88.4181 20.5903 89.0143 20.1714 89.0143 19.355V19.3442C89.0143 18.5601 88.4557 18.1035 87.4943 18.1035ZM87.5212 21.4229H85.7004V24.146H87.6125C88.778 24.146 89.3903 23.6733 89.3903 22.7817V22.771C89.3903 21.8794 88.7565 21.4229 87.5212 21.4229ZM93.3247 25.1021C92.2237 25.1021 91.3911 24.436 91.3911 23.3833V23.3726C91.3911 22.3413 92.1538 21.7451 93.502 21.6646L95.1616 21.5625V21.0361C95.1616 20.3218 94.7266 19.9351 93.8618 19.9351C93.169 19.9351 92.7124 20.1929 92.562 20.644L92.5567 20.6602H91.6221L91.6275 20.6279C91.7779 19.7202 92.6587 19.1079 93.8941 19.1079C95.3067 19.1079 96.0962 19.833 96.0962 21.0361V25H95.1616V24.146H95.0757C94.7105 24.7637 94.1035 25.1021 93.3247 25.1021ZM92.3472 23.3618C92.3472 23.9473 92.8467 24.291 93.5181 24.291C94.4688 24.291 95.1616 23.668 95.1616 22.8408V22.3145L93.6148 22.4111C92.7339 22.4648 92.3472 22.7764 92.3472 23.3511V23.3618ZM99.5311 27.6533C99.2357 27.6533 98.9457 27.6211 98.6664 27.5566V26.9336C98.7631 26.9551 99.0424 27.0034 99.3593 27.0034C99.6869 27.0034 100.047 26.9014 100.047 26.5898V26.5791C100.047 26.23 99.7567 26.1387 99.182 26.1387H98.9833V25.6553L99.3646 25.0913C98.2474 24.9946 97.4955 24.3984 97.3988 23.5229H98.3549C98.5106 24.0063 98.9725 24.3232 99.7137 24.3232C100.493 24.3232 101.046 23.9526 101.046 23.4263V23.4155C101.046 23.0234 100.75 22.7495 100.036 22.5776L99.139 22.3628C98.0541 22.105 97.5653 21.6323 97.5653 20.7998V20.7944C97.5653 19.833 98.4891 19.1079 99.7191 19.1079C100.933 19.1079 101.776 19.7148 101.905 20.6602H100.987C100.863 20.2036 100.412 19.8867 99.7137 19.8867C99.0262 19.8867 98.5214 20.2412 98.5214 20.7515V20.7622C98.5214 21.1543 98.8114 21.4014 99.4935 21.5679L100.385 21.7827C101.475 22.0459 102.002 22.5186 102.002 23.3457V23.3564C102.002 24.2642 101.223 24.9302 100.133 25.0752L99.7889 25.5586C100.482 25.5586 100.944 25.9453 100.944 26.5469V26.5576C100.944 27.3525 100.262 27.6533 99.5311 27.6533ZM103.396 25V16.9111H104.33V25H103.396ZM107.604 25.1021C106.503 25.1021 105.671 24.436 105.671 23.3833V23.3726C105.671 22.3413 106.433 21.7451 107.781 21.6646L109.441 21.5625V21.0361C109.441 20.3218 109.006 19.9351 108.141 19.9351C107.448 19.9351 106.992 20.1929 106.841 20.644L106.836 20.6602H105.901L105.907 20.6279C106.057 19.7202 106.938 19.1079 108.173 19.1079C109.586 19.1079 110.376 19.833 110.376 21.0361V25H109.441V24.146H109.355C108.99 24.7637 108.383 25.1021 107.604 25.1021ZM106.627 23.3618C106.627 23.9473 107.126 24.291 107.797 24.291C108.748 24.291 109.441 23.668 109.441 22.8408V22.3145L107.894 22.4111C107.013 22.4648 106.627 22.7764 106.627 23.3511V23.3618ZM114.031 25.043C112.838 25.043 112.339 24.6025 112.339 23.4961V19.9834H111.426V19.21H112.339V17.7114H113.306V19.21H114.573V19.9834H113.306V23.2598C113.306 23.9419 113.542 24.2158 114.144 24.2158C114.31 24.2158 114.401 24.2104 114.573 24.1943V24.9893C114.391 25.0215 114.213 25.043 114.031 25.043Z" fill="white"/>
<rect x="11" y="8" width="27" height="27" rx="13.5" fill="white"/>
<path d="M22.4004 24.2354C20.9404 22.7754 19.8271 21.0176 19.8271 19.5723C19.8271 18.9326 20.0469 18.3564 20.54 17.8926C20.833 17.6191 21.165 17.4727 21.4971 17.4727C21.7852 17.4727 22.0537 17.585 22.2393 17.8438L23.2988 19.333C23.4697 19.5771 23.5479 19.7725 23.5479 19.9531C23.5479 20.1875 23.416 20.3926 23.1914 20.6221L22.835 20.9834C22.7812 21.0371 22.7617 21.1055 22.7617 21.1689C22.7617 21.2471 22.791 21.3203 22.8154 21.374C22.9863 21.6865 23.4453 22.2139 23.9336 22.707C24.4268 23.1953 24.959 23.6543 25.2666 23.8252C25.3203 23.8545 25.3984 23.8838 25.4717 23.8838C25.54 23.8838 25.6084 23.8594 25.6621 23.8057L26.0186 23.4492C26.248 23.2246 26.4531 23.0928 26.6875 23.0928C26.8682 23.0928 27.0684 23.1709 27.3076 23.3418L28.8115 24.4111C29.0654 24.5967 29.1729 24.8555 29.1729 25.1289C29.1729 25.4658 29.0166 25.8027 28.7529 26.0957C28.2939 26.6035 27.7275 26.8281 27.083 26.8281C25.6377 26.8281 23.8652 25.7002 22.4004 24.2354Z" fill="#8F6DD9"/>
</svg>
