<svg width="23" height="23" viewBox="0 0 23 23" fill="none" xmlns="http://www.w3.org/2000/svg">
<rect width="23" height="23" rx="11.5" fill="#EB004B"/>
<path d="M9.90039 13.7354C8.44043 12.2754 7.32715 10.5176 7.32715 9.07227C7.32715 8.43262 7.54688 7.85645 8.04004 7.39258C8.33301 7.11914 8.66504 6.97266 8.99707 6.97266C9.28516 6.97266 9.55371 7.08496 9.73926 7.34375L10.7988 8.83301C10.9697 9.07715 11.0479 9.27246 11.0479 9.45312C11.0479 9.6875 10.916 9.89258 10.6914 10.1221L10.335 10.4834C10.2812 10.5371 10.2617 10.6055 10.2617 10.6689C10.2617 10.7471 10.291 10.8203 10.3154 10.874C10.4863 11.1865 10.9453 11.7139 11.4336 12.207C11.9268 12.6953 12.459 13.1543 12.7666 13.3252C12.8203 13.3545 12.8984 13.3838 12.9717 13.3838C13.04 13.3838 13.1084 13.3594 13.1621 13.3057L13.5186 12.9492C13.748 12.7246 13.9531 12.5928 14.1875 12.5928C14.3682 12.5928 14.5684 12.6709 14.8076 12.8418L16.3115 13.9111C16.5654 14.0967 16.6729 14.3555 16.6729 14.6289C16.6729 14.9658 16.5166 15.3027 16.2529 15.5957C15.7939 16.1035 15.2275 16.3281 14.583 16.3281C13.1377 16.3281 11.3652 15.2002 9.90039 13.7354Z" fill="white"/>
</svg>
