<svg width="23" height="23" viewBox="0 0 23 23" fill="none" xmlns="http://www.w3.org/2000/svg">
<rect width="23" height="23" rx="11.5" fill="#8F6DD9"/>
<path d="M9.90039 14.7354C8.44043 13.2754 7.32715 11.5176 7.32715 10.0723C7.32715 9.43262 7.54688 8.85645 8.04004 8.39258C8.33301 8.11914 8.66504 7.97266 8.99707 7.97266C9.28516 7.97266 9.55371 8.08496 9.73926 8.34375L10.7988 9.83301C10.9697 10.0771 11.0479 10.2725 11.0479 10.4531C11.0479 10.6875 10.916 10.8926 10.6914 11.1221L10.335 11.4834C10.2812 11.5371 10.2617 11.6055 10.2617 11.6689C10.2617 11.7471 10.291 11.8203 10.3154 11.874C10.4863 12.1865 10.9453 12.7139 11.4336 13.207C11.9268 13.6953 12.459 14.1543 12.7666 14.3252C12.8203 14.3545 12.8984 14.3838 12.9717 14.3838C13.04 14.3838 13.1084 14.3594 13.1621 14.3057L13.5186 13.9492C13.748 13.7246 13.9531 13.5928 14.1875 13.5928C14.3682 13.5928 14.5684 13.6709 14.8076 13.8418L16.3115 14.9111C16.5654 15.0967 16.6729 15.3555 16.6729 15.6289C16.6729 15.9658 16.5166 16.3027 16.2529 16.5957C15.7939 17.1035 15.2275 17.3281 14.583 17.3281C13.1377 17.3281 11.3652 16.2002 9.90039 14.7354Z" fill="white"/>
</svg>
