<svg width="23" height="23" viewBox="0 0 23 23" fill="none" xmlns="http://www.w3.org/2000/svg">
<rect width="23" height="23" rx="11.5" fill="#8F6DD9"/>
<path d="M16.3333 6.94004C15.7221 6.32266 14.9941 5.83315 14.1918 5.50007C13.3894 5.167 12.5287 4.99701 11.66 5.00004C8.02 5.00004 5.05333 7.96671 5.05333 11.6067C5.05333 12.7734 5.36 13.9067 5.93333 14.9067L5 18.3334L8.5 17.4134C9.46667 17.94 10.5533 18.22 11.66 18.22C15.3 18.22 18.2667 15.2534 18.2667 11.6134C18.2667 9.84671 17.58 8.18671 16.3333 6.94004ZM11.66 17.1C10.6733 17.1 9.70667 16.8334 8.86 16.3334L8.66 16.2134L6.58 16.76L7.13333 14.7334L7 14.5267C6.45183 13.6514 6.16076 12.6395 6.16 11.6067C6.16 8.58004 8.62667 6.11337 11.6533 6.11337C13.12 6.11337 14.5 6.68671 15.5333 7.72671C16.045 8.23602 16.4505 8.84181 16.7263 9.50899C17.0021 10.1762 17.1427 10.8914 17.14 11.6134C17.1533 14.64 14.6867 17.1 11.66 17.1ZM14.6733 12.9934C14.5067 12.9134 13.6933 12.5134 13.5467 12.4534C13.3933 12.4 13.2867 12.3734 13.1733 12.5334C13.06 12.7 12.7467 13.0734 12.6533 13.18C12.56 13.2934 12.46 13.3067 12.2933 13.22C12.1267 13.14 11.5933 12.96 10.9667 12.4C10.4733 11.96 10.1467 11.42 10.0467 11.2534C9.95333 11.0867 10.0333 11 10.12 10.9134C10.1933 10.84 10.2867 10.72 10.3667 10.6267C10.4467 10.5334 10.48 10.46 10.5333 10.3534C10.5867 10.24 10.56 10.1467 10.52 10.0667C10.48 9.98671 10.1467 9.17337 10.0133 8.84004C9.88 8.52004 9.74 8.56004 9.64 8.55337H9.32C9.20667 8.55337 9.03333 8.59337 8.88 8.76004C8.73333 8.92671 8.30667 9.32671 8.30667 10.14C8.30667 10.9534 8.9 11.74 8.98 11.8467C9.06 11.96 10.1467 13.6267 11.8 14.34C12.1933 14.5134 12.5 14.6134 12.74 14.6867C13.1333 14.8134 13.4933 14.7934 13.78 14.7534C14.1 14.7067 14.76 14.3534 14.8933 13.9667C15.0333 13.58 15.0333 13.2534 14.9867 13.18C14.94 13.1067 14.84 13.0734 14.6733 12.9934Z" fill="white"/>
</svg>
